<?xml version="1.0" encoding="iso-8859-1"?>
<!-- Generator: Adobe Illustrator 19.0.0, SVG Export Plug-In . SVG Version: 6.00 Build 0)  -->
<svg xmlns="http://www.w3.org/2000/svg" xmlns:xlink="http://www.w3.org/1999/xlink" version="1.1" id="Capa_1" x="0px" y="0px" viewBox="0 0 479.661 479.661" style="enable-background:new 0 0 479.661 479.661;" xml:space="preserve" width="512px" height="512px">
<g>
	<g>
		<path d="M478.424,455.558L288.128,153.99v-46.16h104c4.418-0.001,7.999-3.583,7.999-8.001c0-1.793-0.603-3.533-1.711-4.943    l-28.04-35.64l28-34.4c2.77-3.442,2.226-8.478-1.216-11.248c-1.426-1.147-3.202-1.771-5.032-1.768h-112c-4.418,0-8,3.582-8,8    v133.92L171.856,294.966l-21.144-31.736c-1.46-2.195-3.908-3.53-6.544-3.568c-2.633-0.013-5.109,1.248-6.648,3.384L1.472,455.206    c-2.554,3.605-1.701,8.599,1.904,11.152c1.354,0.959,2.973,1.473,4.632,1.472h463.648c4.418,0.002,8.002-3.578,8.004-7.996    C479.661,458.321,479.233,456.838,478.424,455.558z M288.128,27.83h87.2l-21.384,26.28c-2.363,2.904-2.397,7.059-0.08,10    l21.792,27.72h-87.528V27.83z M23.472,451.83l45.312-64h32l21.488,21.488l11.312-11.312l-23.832-23.832    c-1.492-1.493-3.514-2.335-5.624-2.344h-24l63.744-90.032l89.6,134.472c1.484,2.225,3.982,3.56,6.656,3.56h60.968l32,32H23.472z     M355.696,451.83l-45.656-45.656c-1.5-1.5-3.534-2.344-5.656-2.344h-60l-63.032-94.608l18.776-26.44v1.048h84.688l30.576,30.576    l11.312-11.312l-32.92-32.92c-1.5-1.5-3.534-2.344-5.656-2.344h-77.384l68.992-97.16l177.408,281.16H355.696z" fill="#FFFFFF"/>
	</g>
</g>
<g>
	<g>
		<path d="M215.968,138.494c-0.76-4.352-4.904-7.263-9.256-6.504l-31.52,5.52l2.752,15.76l11.096-1.944l-40.824,52.504h-44.088    c-2.518,0-4.889,1.186-6.4,3.2l-72,96l12.8,9.6l69.6-92.8h44c2.47,0.002,4.803-1.138,6.32-3.088l44.88-57.712l2.4,13.736    l15.76-2.752L215.968,138.494z" fill="#FFFFFF"/>
	</g>
</g>
<g>
</g>
<g>
</g>
<g>
</g>
<g>
</g>
<g>
</g>
<g>
</g>
<g>
</g>
<g>
</g>
<g>
</g>
<g>
</g>
<g>
</g>
<g>
</g>
<g>
</g>
<g>
</g>
<g>
</g>
</svg>
