<?xml version="1.0" encoding="iso-8859-1"?>
<!-- Generator: Adobe Illustrator 19.0.0, SVG Export Plug-In . SVG Version: 6.00 Build 0)  -->
<svg version="1.1" id="Layer_1" xmlns="http://www.w3.org/2000/svg" xmlns:xlink="http://www.w3.org/1999/xlink" x="0px" y="0px"
	 viewBox="0 0 508 508" style="enable-background:new 0 0 508 508;" xml:space="preserve">
<circle style="fill:#90DFAA;" cx="254" cy="254" r="254"/>
<ellipse style="fill:#FFFFFF;" cx="254" cy="416.4" rx="137.6" ry="64"/>
<path style="fill:#324A5E;" d="M244,410.4c0,0,2.4,8.4-1.2,10.8c0,0-3.2,0.8-3.2,5.6c0,0,0,5.2-7.2,5.2c0,0-18.4,2-21.2-2.4
	c0,0-2-2.4-0.8-6.4l21.6-8L244,410.4z"/>
<g>
	<path style="fill:#2B3B4E;" d="M241.6,397.6c0,0,8,6.8,2.4,16c0,0-4.4,5.6-4.4,8.8c0,0,0.4,9.2-9.2,6.8c0,0-9.6-6.8-16.4-1.2
		c0,0-4.8-0.4-2.8-7.2c0,0,5.6-6.8,8.8-13.6c0,0,2-1.2,0.8-6.4L241.6,397.6z"/>
	<path style="fill:#2B3B4E;" d="M263.6,410.4c0,0-2.4,8.4,1.2,10.8c0,0,3.2,0.8,3.2,5.6c0,0,0,5.2,7.2,5.2c0,0,18.4,2,21.2-2.4
		c0,0,2-2.4,0.8-6.4l-21.6-8L263.6,410.4z"/>
</g>
<path style="fill:#324A5E;" d="M266.4,397.6c0,0-8,6.8-2.4,16c0,0,4.4,5.6,4.4,8.8c0,0-0.4,9.2,9.2,6.8c0,0,9.6-6.8,16.4-1.2
	c0,0,4.8-0.4,2.8-7.2c0,0-5.6-6.8-8.8-13.6c0,0-2-1.2-0.8-6.4L266.4,397.6z"/>
<polygon style="fill:#E6E9EE;" points="234,95.2 252.8,168 271.6,95.2 "/>
<polygon style="fill:#F1543F;" points="258.4,103.2 260.8,95.2 246.8,95.2 249.6,103.2 "/>
<polygon style="fill:#FF7058;" points="258.4,103.2 254,103.2 249.6,103.2 240,158.4 254,167.6 267.6,158.4 "/>
<path style="fill:#324A5E;" d="M218.8,197.2c-3.6,18.8-7.2,52.8-0.8,92.4c0,0,6,90.8,0.4,110.8c0,0,10.8,19.2,29.6,0
	c0,0,0.4-149.6,5.6-155.6v-47.6H218.8z"/>
<path style="fill:#2B3B4E;" d="M253.6,197.2v47.6c5.2,6,5.6,155.6,5.6,155.6c18.8,19.2,29.6,0,29.6,0c-5.2-20,0.4-110.8,0.4-110.8
	c6.4-39.6,2.4-73.6-0.8-92.4L253.6,197.2L253.6,197.2z"/>
<polygon style="fill:#CED5E0;" points="268.4,84.8 238.8,84.8 234.4,95.2 270.8,95.2 "/>
<path style="fill:#2B3B4E;" d="M236,91.2l-33.2,12c0,0,20,61.2,11.2,102.4c0,0-3.6,20.8-0.8,36.8c0,0,23.2,16.8,32,1.2
	c0,0,12-36.8,9.6-72.8l-10.4-28L236,91.2z"/>
<g>
	<path style="fill:#324A5E;" d="M238.8,84.8l-16,17.2l6,2.8l-4.8,4.4c0,0,15.2,46,30.8,61.6C254.8,171.2,238,100,238.8,84.8z"/>
	<path style="fill:#324A5E;" d="M271.6,91.2l33.2,12c0,0-20,61.2-11.2,102.4c0,0,3.6,20.8,0.8,36.8c0,0-23.2,16.8-32,1.2
		c0,0-12-36.8-9.6-72.8l10.4-28L271.6,91.2z"/>
</g>
<g>
	<path style="fill:#2B3B4E;" d="M268.4,84.8l16,17.2l-6,2.8l4.8,4.4c0,0-15.2,46-30.8,61.6C252.8,171.2,269.6,100,268.4,84.8z"/>
	<circle style="fill:#2B3B4E;" cx="258.4" cy="174.4" r="3.2"/>
</g>
<polygon style="fill:#FF7058;" points="274,147.6 279.6,138 288,144.4 "/>
<rect x="271.581" y="144.42" transform="matrix(-0.9789 0.2042 -0.2042 -0.9789 585.9814 232.7724)" style="fill:#2B3B4E;" width="18.799" height="4.4"/>
<path style="fill:#FFD05B;" d="M306.8,237.2c0.4,3.6,0.4,6,0.4,6c1.2,0.8,3.2,4.4,3.2,4.4c4.8,3.6,2,6.8,2,6.8l0.4,2.8
	c1.2,1.2,0.4,3.6,0.4,3.6c-2.4,4.8-4.4,0.8-4.4,0.8c-2.8,3.2-4.4-0.8-4.4-0.8c-3.2,1.2-4-1.6-4-1.6s-5.6,0.8-4.4-12
	c0.4-3.2,0.4-6.4,0-9.6h10.8V237.2z"/>
<g>
	<path style="fill:#F9B54C;" d="M302,250c0-0.4,0.4-2.4,0.4-2.4c-0.8,2.4,2,4.4,2,4.4c-0.4,0-0.4-1.6-0.4-1.6c0.4,2.4,4,3.6,4,3.6
		c0.8-1.6,1.6-2.4,1.6-2.4c-0.8,1.2-1.2,2.4-1.2,2.4c0.8,0,1.2,0.8,1.2,0.8c-0.8-0.8-1.6,0-1.6,0c1.6,0.4,1.2,2,1.2,2
		c0-1.6-1.2-1.6-1.2-1.6c1.2,0.8,0.4,2,0.4,2c0-1.6-1.6-1.6-1.6-1.6c0.8-1.2,0-0.8,0-0.8c-1.6-2-2,0.4-2.4,1.2c-0.4,0-0.4,0-0.4,0
		c0.8-2,0-2.4,0-2.4c-1.6-1.2-1.6,0.8-1.6,0.8c0,3.6-2.4,4.8-2.4,4.8h-0.8c1.6-0.8,2-2.8,2-2.8c1.2-3.6-0.4-4-0.4-4
		c-2.8-0.4-2.4,2-2.4,2c-1.2,0.4-2.4,0-2.4,0c0.8,0,1.2-0.8,1.2-0.8c1.2-0.8-0.4-2.8-0.4-2.8c0.8,0.8,4,0.8,4,0.8
		c1.6,0,0.4-1.6,0.4-1.6l-0.8,0.4c0-0.4-0.8-2.4-0.8-2.4C300.8,248,301.6,249.6,302,250z"/>
	<path style="fill:#F9B54C;" d="M312.8,255.2c0,0-0.4,0.4-1.6,2.8c0,0-0.4,0.4-0.4,0.8c-0.4,0.8-0.8,1.2-1.6,0.8
		c-0.8-0.4-2-0.4-3.2-0.4c0,0-0.8,0-1.6,0c-0.4,0-0.8-0.4-0.8-0.8c0.4-0.8,0.8-2,2.4-2.4c0,0,2-0.4,2.4,0c0,0-2.8-0.8-4,0.8
		c0,0-1.6,1.6-0.4,2.4c0,0,4.4,0,4.4,0.4c0,0,1.6,0.8,2.4-0.4c0,0,0.4-2,2-1.6c0,0-0.4-0.4-1.2-0.4C312,257.2,312,256,312.8,255.2z"
		/>
	<path style="fill:#F9B54C;" d="M309.2,259.2c-0.4,0.8,0.4,3.2,0.4,3.2c-0.4-0.4-0.4-0.8-0.4-0.8c-0.4,0.4-0.4,0.4-0.8,0.8
		c0.4-1.2,0-2.8,0-2.8h0.8V259.2z"/>
	<path style="fill:#F9B54C;" d="M305.2,261.2C305.2,260.8,304.8,260.8,305.2,261.2c-0.4-0.4-0.4-0.4-0.4-0.4c0.4-0.8,0.4-2,0.4-2
		h0.8C306,260,305.2,261.2,305.2,261.2z"/>
</g>
<rect x="294.8" y="230.8" style="fill:#FFFFFF;" width="14" height="9.6"/>
<path style="fill:#FFD05B;" d="M201.2,237.2c-0.4,3.6-0.4,6-0.4,6c-1.2,0.8-3.2,4.4-3.2,4.4c-4.8,3.6-2,6.8-2,6.8l-0.4,2.8
	c-1.2,1.2-0.4,3.6-0.4,3.6c2.4,4.8,4.4,0.8,4.4,0.8c2.8,3.2,4.4-0.8,4.4-0.8c3.2,1.2,4-1.6,4-1.6s5.6,0.8,4.4-12
	c-0.4-3.2-0.4-6.4,0-9.6h-10.8V237.2z"/>
<g>
	<path style="fill:#F9B54C;" d="M206,250c0-0.4-0.4-2.4-0.4-2.4c0.8,2.4-2,4.4-2,4.4c0.4,0,0.4-1.6,0.4-1.6c-0.4,2.4-4,3.6-4,3.6
		c-0.8-1.6-1.6-2.4-1.6-2.4c0.8,1.2,1.2,2.4,1.2,2.4c-0.8,0-1.2,0.8-1.2,0.8c0.8-0.8,1.6,0,1.6,0c-1.6,0.4-1.2,2-1.2,2
		c0-1.6,1.2-1.6,1.2-1.6c-1.2,0.8-0.4,2-0.4,2c0-1.6,1.6-1.6,1.6-1.6c-0.8-1.2,0-0.8,0-0.8c1.6-2,2,0.4,2.4,1.2c0.4,0,0.4,0,0.4,0
		c-0.8-2,0-2.4,0-2.4c1.6-1.2,1.6,0.8,1.6,0.8c0,3.6,2.4,4.8,2.4,4.8h0.8c-1.6-0.8-2-2.8-2-2.8c-1.2-3.6,0.4-4,0.4-4
		c2.8-0.4,2.4,2,2.4,2c1.2,0.4,2.4,0,2.4,0c-0.8,0-1.2-0.8-1.2-0.8c-1.2-0.8,0.4-2.8,0.4-2.8c-0.8,0.8-4,0.8-4,0.8
		c-1.6,0-0.4-1.6-0.4-1.6l0.8,0.4c0-0.4,0.8-2.4,0.8-2.4C207.2,248,206.4,249.6,206,250z"/>
	<path style="fill:#F9B54C;" d="M195.2,255.2c0,0,0.4,0.4,1.6,2.8c0,0,0.4,0.4,0.4,0.8c0.4,0.8,0.8,1.2,1.6,0.8
		c0.8-0.4,2-0.4,3.2-0.4c0,0,0.8,0,1.6,0c0.4,0,0.8-0.4,0.8-0.8c-0.4-0.8-0.8-2-2.4-2.4c0,0-2-0.4-2.4,0c0,0,2.8-0.8,4,0.8
		c0,0,1.6,1.6,0.4,2.4c0,0-4.4,0-4.4,0.4c0,0-1.6,0.8-2.4-0.4c0,0-0.4-2-2-1.6c0,0,0.4-0.4,1.2-0.4C196,257.2,196,256,195.2,255.2z"
		/>
	<path style="fill:#F9B54C;" d="M198.8,259.2c0.4,0.8-0.4,3.2-0.4,3.2c0.4-0.4,0.4-0.8,0.4-0.8c0.4,0.4,0.4,0.4,0.8,0.8
		c-0.4-1.2,0-2.8,0-2.8h-0.8V259.2z"/>
	<path style="fill:#F9B54C;" d="M202.8,261.2C202.8,260.8,203.2,260.8,202.8,261.2c0.4-0.4,0.4-0.4,0.4-0.4c-0.4-0.8-0.4-2-0.4-2
		H202C202,260,202.8,261.2,202.8,261.2z"/>
</g>
<rect x="199.2" y="230.8" style="fill:#FFFFFF;" width="14" height="9.6"/>
<path style="fill:#2B3B4E;" d="M311.6,236.4h-19.2c0,0-0.4-49.6,2-58.8c0,0,0.8-9.6-1.6-17.2c3.2-29.6,12-56,12-56.8
	C304.8,103.6,314.4,128,311.6,236.4z"/>
<path style="fill:#324A5E;" d="M196,236.4h19.2c0,0,0.4-49.6-2-58.8c0,0-0.8-9.6,1.6-17.2c-3.2-29.6-12-56-12-56.8
	C202.8,103.6,193.2,128,196,236.4z"/>
<ellipse style="fill:#F9B54C;" cx="254" cy="81.6" rx="12.4" ry="13.6"/>
<g>
	<path style="fill:#FFFFFF;" d="M266,78.8c0,0,2.4,12-12.4,16.4c0,0,8.4,2,12,12C266,107.2,275.6,91.6,266,78.8z"/>
	<path style="fill:#FFFFFF;" d="M241.6,78.8c0,0-2.4,12,12.4,16.4c0,0-8.4,2-12,12C242,107.2,232,91.6,241.6,78.8z"/>
</g>
<path style="fill:#FFD05B;" d="M271.6,68.8c-1.6,5.2-2.4,8.4-2.4,8.8l0,0c-4,5.6-9.2,9.2-14.8,9.2c-5.2,0-10-3.2-14-8
	c-8.4-10.4-2.8-29.2-2.8-29.2c4,4.8,17.6,5.2,17.6,5.2c-5.6-0.8-6.8-5.2-6.8-5.6c1.2,2.8,14,4.4,14,4.4
	C276,55.2,271.6,68.8,271.6,68.8z"/>
<path style="fill:#324A5E;" d="M246.4,29.6c0,0,18.4-7.2,28,9.2c10,18-2.4,37.2-5.2,38.8c0,0,0.8-3.2,2.4-9.2c0,0,4.4-13.2-9.2-15.2
	c0,0-13.2-1.6-14-4.8c0,0,0.8,4.8,6.8,5.6c0,0-13.6-0.4-17.6-5.2c0,0-5.6,19.2,2.8,29.2c0,0-14.4-11.6-12.8-29.6
	C227.2,49.2,226.8,24.4,246.4,29.6z"/>
<ellipse style="fill:#FFFFFF;" cx="392.8" cy="313.2" rx="70" ry="32.4"/>
<path style="fill:#324A5E;" d="M387.6,310c0,0,1.2,4.4-0.4,5.6c0,0-1.6,0.4-1.6,2.8c0,0,0,2.8-3.6,2.4c0,0-9.6,1.2-10.8-1.2
	c0,0-1.2-1.2-0.4-3.2l10.8-4L387.6,310z"/>
<g>
	<path style="fill:#2B3B4E;" d="M386.4,303.6c0,0,4,3.6,1.2,8c0,0-2,2.8-2.4,4.4c0,0,0.4,4.8-4.8,3.6c0,0-4.8-3.6-8.4-0.4
		c0,0-2.4-0.4-1.2-3.6c0,0,2.8-3.6,4.4-6.8c0,0,0.8-0.8,0.4-3.2L386.4,303.6z"/>
	<path style="fill:#2B3B4E;" d="M397.6,310c0,0-1.2,4.4,0.4,5.6c0,0,1.6,0.4,1.6,2.8c0,0,0,2.8,3.6,2.4c0,0,9.6,1.2,10.8-1.2
		c0,0,1.2-1.2,0.4-3.2l-10.8-4L397.6,310z"/>
</g>
<path style="fill:#324A5E;" d="M399.2,303.6c0,0-4,3.6-1.2,8c0,0,2,2.8,2.4,4.4c0,0-0.4,4.8,4.8,3.6c0,0,4.8-3.6,8.4-0.4
	c0,0,2.4-0.4,1.2-3.6c0,0-2.8-3.6-4.4-6.8c0,0-0.8-0.8-0.4-3.2L399.2,303.6z"/>
<polygon style="fill:#E6E9EE;" points="382.8,150 392.4,186.8 401.6,150 "/>
<polygon style="fill:#F1543F;" points="394.8,154 396.4,150 389.2,150 390.4,154 "/>
<polygon style="fill:#FF7058;" points="394.8,154 392.8,154 390.4,154 385.6,182 392.8,186.8 399.6,182 "/>
<path style="fill:#324A5E;" d="M374.8,201.6c-1.6,9.6-3.6,26.8-0.4,46.8c0,0,2.8,46,0.4,56.4c0,0,5.6,9.6,15.2,0
	c0,0,0.4-76,2.8-79.2v-24.4h-18V201.6z"/>
<path style="fill:#2B3B4E;" d="M392.8,201.6V226c2.4,3.2,2.8,79.2,2.8,79.2c9.6,9.6,15.2,0,15.2,0c-2.8-10,0.4-56.4,0.4-56.4
	c3.2-20,1.2-37.2-0.4-46.8h-18V201.6z"/>
<polygon style="fill:#CED5E0;" points="400.4,144.8 385.2,144.8 382.8,150 401.6,150 "/>
<path style="fill:#2B3B4E;" d="M383.6,148l-16.8,6c0,0,10.4,31.2,5.6,52c0,0-1.6,10.4-0.4,18.8c0,0,11.6,8.4,16.4,0.4
	c0,0,6-18.8,4.8-36.8l-5.2-14L383.6,148z"/>
<g>
	<path style="fill:#324A5E;" d="M385.2,144.8l-8,8.8l3.2,1.2l-2.4,2.4c0,0,7.6,23.2,15.6,31.2C393.2,188.4,384.8,152.4,385.2,144.8z
		"/>
	<path style="fill:#324A5E;" d="M401.6,148l16.8,6c0,0-10.4,31.2-5.6,52c0,0,1.6,10.4,0.4,18.8c0,0-11.6,8.4-16.4,0.4
		c0,0-6-18.8-4.8-36.8l5.2-14L401.6,148z"/>
</g>
<g>
	<path style="fill:#2B3B4E;" d="M400.4,144.8l8,8.8l-3.2,1.2l2.4,2.4c0,0-7.6,23.2-15.6,31.2C392,188.4,400.8,152.4,400.4,144.8z"/>
	<circle style="fill:#2B3B4E;" cx="395.2" cy="190" r="1.6"/>
</g>
<polygon style="fill:#FF7058;" points="403.2,176.4 405.6,171.6 410,175.2 "/>
<rect x="401.962" y="174.755" transform="matrix(-0.9789 0.2042 -0.2042 -0.9789 840.8837 265.1396)" style="fill:#2B3B4E;" width="9.6" height="2.4"/>
<path style="fill:#FFD05B;" d="M419.6,222c0,2,0.4,3.2,0.4,3.2c0.4,0.4,1.6,2,1.6,2c2.4,2,1.2,3.2,1.2,3.2v1.6c0.4,0.8,0.4,2,0.4,2
	c-1.2,2.4-2,0.4-2,0.4c-1.2,1.6-2-0.4-2-0.4c-1.6,0.8-2-0.8-2-0.8s-2.8,0.4-2.4-6c0-1.6,0-3.2,0-4.8h4.8V222z"/>
<g>
	<path style="fill:#F9B54C;" d="M417.2,228.8c0-0.4,0.4-1.2,0.4-1.2c-0.4,1.2,1.2,2,1.2,2l-0.4-0.8c0.4,1.2,2,2,2,2
		c0.4-0.8,0.8-1.2,0.8-1.2c-0.4,0.4-0.4,1.2-0.4,1.2c0.4,0,0.8,0.4,0.8,0.4c-0.4-0.4-0.8,0-0.8,0c0.8,0.4,0.8,1.2,0.8,1.2
		c0-0.8-0.4-0.8-0.4-0.8c0.4,0.4,0.4,0.8,0.4,0.8c0-0.8-0.8-0.8-0.8-0.8c0.4-0.4,0-0.4,0-0.4c-0.8-1.2-1.2,0-1.2,0.4h-0.4
		c0.4-1.2,0-1.2,0-1.2c-0.8-0.8-0.8,0.4-0.8,0.4c0,1.6-1.2,2.4-1.2,2.4h-0.4c0.8-0.4,1.2-1.2,1.2-1.2c0.8-1.6,0-2,0-2
		c-1.6,0-1.2,1.2-1.2,1.2c-0.4,0.4-1.2,0-1.2,0c0.4,0,0.8-0.4,0.8-0.4c0.4-0.4-0.4-1.6-0.4-1.6c0.4,0.4,2,0.4,2,0.4
		C418,229.6,417.2,228.8,417.2,228.8L417.2,228.8c0,0.4-0.8-0.8-0.8-0.8C416.8,227.6,417.2,228.4,417.2,228.8z"/>
	<path style="fill:#F9B54C;" d="M422.8,231.2c0,0-0.4,0.4-0.8,1.2c0,0,0,0.4-0.4,0.4c0,0.4-0.4,0.4-0.8,0.4s-1.2-0.4-1.6-0.4
		c0,0-0.4,0-0.8,0s-0.4-0.4-0.4-0.4c0-0.4,0.4-0.8,1.2-1.2c0,0,0.8,0,1.2,0c0,0-1.2-0.4-2,0.4c0,0-0.8,0.8,0,1.2c0,0,2,0,2.4,0
		c0,0,0.8,0.4,1.2,0c0,0,0-0.8,1.2-0.8c0,0-0.4-0.4-0.8,0C422.4,232.4,422.4,231.6,422.8,231.2z"/>
	<path style="fill:#F9B54C;" d="M420.8,233.2c0,0.4,0.4,1.6,0.4,1.6l-0.4-0.4l-0.4,0.4C420.8,234.4,420.8,233.2,420.8,233.2
		L420.8,233.2z"/>
	<path style="fill:#F9B54C;" d="M418.8,234.4C418.8,234,418.8,234,418.8,234.4C418.8,234,418.4,234,418.8,234.4c0-0.4,0-1.2,0-1.2
		h0.4C419.2,233.6,418.8,234.4,418.8,234.4z"/>
</g>
<rect x="413.6" y="218.8" style="fill:#FFFFFF;" width="7.2" height="4.8"/>
<path style="fill:#FFD05B;" d="M366,222c0,2-0.4,3.2-0.4,3.2c-0.4,0.4-1.6,2-1.6,2c-2.4,2-1.2,3.2-1.2,3.2v1.6c-0.4,0.8-0.4,2-0.4,2
	c1.2,2.4,2,0.4,2,0.4c1.2,1.6,2-0.4,2-0.4c1.6,0.8,2-0.8,2-0.8s2.8,0.4,2.4-6c0-1.6,0-3.2,0-4.8H366V222z"/>
<g>
	<path style="fill:#F9B54C;" d="M368.4,228.8c0-0.4-0.4-1.2-0.4-1.2c0.4,1.2-1.2,2-1.2,2l0.4-0.8c-0.4,1.2-2,2-2,2
		c-0.4-0.8-0.8-1.2-0.8-1.2c0.4,0.4,0.4,1.2,0.4,1.2c-0.4,0-0.8,0.4-0.8,0.4c0.4-0.4,0.8,0,0.8,0c-0.8,0.4-0.8,1.2-0.8,1.2
		c0-0.8,0.4-0.8,0.4-0.8c-0.4,0.4-0.4,0.8-0.4,0.8c0-0.8,0.8-0.8,0.8-0.8c-0.4-0.4,0-0.4,0-0.4c0.8-1.2,1.2,0,1.2,0.4h0.4
		c-0.4-1.2,0-1.2,0-1.2c0.8-0.8,0.8,0.4,0.8,0.4c0,1.6,1.2,2.4,1.2,2.4h0.4c-0.8-0.4-1.2-1.2-1.2-1.2c-0.8-1.6,0-2,0-2
		c1.6,0,1.2,1.2,1.2,1.2c0.4,0.4,1.2,0,1.2,0c-0.4,0-0.8-0.4-0.8-0.4c-0.4-0.4,0.4-1.6,0.4-1.6c-0.4,0.4-2,0.4-2,0.4
		C367.6,229.6,368.4,228.8,368.4,228.8L368.4,228.8c0,0.4,0.8-0.8,0.8-0.8C368.8,227.6,368.8,228.4,368.4,228.8z"/>
	<path style="fill:#F9B54C;" d="M362.8,231.2c0,0,0.4,0.4,0.8,1.2c0,0,0,0.4,0.4,0.4c0,0.4,0.4,0.4,0.8,0.4s1.2-0.4,1.6-0.4
		c0,0,0.4,0,0.8,0s0.4-0.4,0.4-0.4c0-0.4-0.4-0.8-1.2-1.2c0,0-0.8,0-1.2,0c0,0,1.2-0.4,2,0.4c0,0,0.8,0.8,0,1.2c0,0-2,0-2.4,0
		c0,0-0.8,0.4-1.2,0c0,0,0-0.8-1.2-0.8c0,0,0.4-0.4,0.8,0C363.2,232.4,363.2,231.6,362.8,231.2z"/>
	<path style="fill:#F9B54C;" d="M364.8,233.2c0,0.4-0.4,1.6-0.4,1.6l0.4-0.4l0.4,0.4C364.8,234.4,365.2,233.2,364.8,233.2
		L364.8,233.2z"/>
	<path style="fill:#F9B54C;" d="M366.8,234.4C366.8,234,366.8,234,366.8,234.4C366.8,234,367.2,234,366.8,234.4c0-0.4,0-1.2,0-1.2
		h-0.4C366.4,233.6,366.8,234.4,366.8,234.4z"/>
</g>
<rect x="365.2" y="218.8" style="fill:#FFFFFF;" width="7.2" height="4.8"/>
<path style="fill:#2B3B4E;" d="M422,221.6h-10c0,0,0-25.2,1.2-30c0,0,0.4-4.8-0.8-8.8c1.6-15.2,6-28.4,6-28.8
	C418.8,154,423.6,166.8,422,221.6z"/>
<path style="fill:#324A5E;" d="M363.2,221.6h10c0,0,0-25.2-1.2-30c0,0-0.4-4.8,0.8-8.8c-1.6-15.2-6-28.4-6-28.8
	C366.8,154,362,166.8,363.2,221.6z"/>
<ellipse style="fill:#F9B54C;" cx="392.8" cy="142.8" rx="6.4" ry="6.8"/>
<g>
	<path style="fill:#FFFFFF;" d="M398.8,141.6c0,0,1.2,6-6.4,8.4c0,0,4.4,0.8,6,6C398.8,156,403.6,148,398.8,141.6z"/>
	<path style="fill:#FFFFFF;" d="M386.4,141.6c0,0-1.2,6,6.4,8.4c0,0-4.4,0.8-6,6C386.8,156,381.6,148,386.4,141.6z"/>
</g>
<path style="fill:#FFD05B;" d="M401.6,136.4c-0.8,2.8-1.2,4-1.2,4.4l0,0c-2,2.8-4.8,4.8-7.6,4.8c-2.8,0-5.2-1.6-7.2-4
	c-4.4-5.2-1.2-14.8-1.2-14.8c2,2.4,9.2,2.4,9.2,2.4c-2.8-0.4-3.6-2.8-3.6-2.8c0.4,1.6,7.2,2.4,7.2,2.4
	C404,129.6,401.6,136.4,401.6,136.4z"/>
<path style="fill:#324A5E;" d="M388.8,116.4c0,0,9.2-3.6,14,4.8c5.2,9.2-1.2,18.8-2.8,19.6c0,0,0.4-1.6,1.2-4.4c0,0,2.4-6.8-4.8-7.6
	c0,0-6.8-0.8-7.2-2.4c0,0,0.4,2.4,3.6,2.8c0,0-6.8,0-9.2-2.4c0,0-2.8,9.6,1.2,14.8c0,0-7.2-6-6.4-15.2
	C379.2,126.4,378.8,114,388.8,116.4z"/>
<ellipse style="fill:#FFFFFF;" cx="115.2" cy="313.2" rx="70" ry="32.4"/>
<path style="fill:#324A5E;" d="M110,310c0,0,1.2,4.4-0.4,5.6c0,0-1.6,0.4-1.6,2.8c0,0,0,2.8-3.6,2.4c0,0-9.6,1.2-10.8-1.2
	c0,0-1.2-1.2-0.4-3.2l10.8-4L110,310z"/>
<g>
	<path style="fill:#2B3B4E;" d="M108.8,303.6c0,0,4,3.6,1.2,8c0,0-2,2.8-2.4,4.4c0,0,0.4,4.8-4.8,3.6c0,0-4.8-3.6-8.4-0.4
		c0,0-2.4-0.4-1.2-3.6c0,0,2.8-3.6,4.4-6.8c0,0,0.8-0.8,0.4-3.2L108.8,303.6z"/>
	<path style="fill:#2B3B4E;" d="M120,310c0,0-1.2,4.4,0.4,5.6c0,0,1.6,0.4,1.6,2.8c0,0,0,2.8,3.6,2.4c0,0,9.6,1.2,10.8-1.2
		c0,0,1.2-1.2,0.4-3.2l-10.8-4L120,310z"/>
</g>
<path style="fill:#324A5E;" d="M121.6,303.6c0,0-4,3.6-1.2,8c0,0,2,2.8,2.4,4.4c0,0-0.4,4.8,4.8,3.6c0,0,4.8-3.6,8.4-0.4
	c0,0,2.4-0.4,1.2-3.6c0,0-2.8-3.6-4.4-6.8c0,0-0.8-0.8-0.4-3.2L121.6,303.6z"/>
<polygon style="fill:#E6E9EE;" points="105.2,150 114.8,186.8 124,150 "/>
<polygon style="fill:#F1543F;" points="117.2,154 118.8,150 111.6,150 112.8,154 "/>
<polygon style="fill:#FF7058;" points="117.2,154 115.2,154 112.8,154 108,182 115.2,186.8 122,182 "/>
<path style="fill:#324A5E;" d="M97.2,201.6c-1.6,9.6-3.6,26.8-0.4,46.8c0,0,2.8,46,0.4,56.4c0,0,5.6,9.6,15.2,0c0,0,0.4-76,2.8-79.2
	v-24.4h-18V201.6z"/>
<path style="fill:#2B3B4E;" d="M115.2,201.6V226c2.4,3.2,2.8,79.2,2.8,79.2c9.6,9.6,15.2,0,15.2,0c-2.8-10,0.4-56.4,0.4-56.4
	c3.2-20,1.2-37.2-0.4-46.8h-18V201.6z"/>
<polygon style="fill:#CED5E0;" points="122.4,144.8 107.6,144.8 105.2,150 124,150 "/>
<path style="fill:#2B3B4E;" d="M106,148l-16.8,6c0,0,10.4,31.2,5.6,52c0,0-1.6,10.4-0.4,18.8c0,0,11.6,8.4,16.4,0.4
	c0,0,6-18.8,4.8-36.8l-5.2-14L106,148z"/>
<g>
	<path style="fill:#324A5E;" d="M107.6,144.8l-8,8.8l3.2,1.2l-2.4,2.4c0,0,7.6,23.2,15.6,31.2C115.6,188.4,107.2,152.4,107.6,144.8z
		"/>
	<path style="fill:#324A5E;" d="M124,148l16.8,6c0,0-10.4,31.2-5.6,52c0,0,1.6,10.4,0.4,18.8c0,0-11.6,8.4-16.4,0.4
		c0,0-6-18.8-4.8-36.8l5.2-14L124,148z"/>
</g>
<g>
	<path style="fill:#2B3B4E;" d="M122.4,144.8l8,8.8l-3.2,1.2l2.4,2.4c0,0-7.6,23.2-15.6,31.2C114.4,188.4,123.2,152.4,122.4,144.8z"
		/>
	<circle style="fill:#2B3B4E;" cx="117.6" cy="190" r="1.6"/>
</g>
<polygon style="fill:#FF7058;" points="125.2,176.4 128,171.6 132.4,175.2 "/>
<rect x="124.371" y="174.745" transform="matrix(-0.9789 0.2042 -0.2042 -0.9789 291.5497 321.8053)" style="fill:#2B3B4E;" width="9.6" height="2.4"/>
<path style="fill:#FFD05B;" d="M142,222c0,2,0.4,3.2,0.4,3.2c0.4,0.4,1.6,2,1.6,2c2.4,2,1.2,3.2,1.2,3.2v1.6c0.4,0.8,0.4,2,0.4,2
	c-1.2,2.4-2,0.4-2,0.4c-1.6,1.6-2.4-0.4-2.4-0.4c-1.6,0.8-2-0.8-2-0.8s-2.8,0.4-2.4-6c0-1.6,0-3.2,0-4.8h5.2V222z"/>
<g>
	<path style="fill:#F9B54C;" d="M139.6,228.8c0-0.4,0.4-1.2,0.4-1.2c-0.4,1.2,1.2,2,1.2,2l-0.4-0.8c0.4,1.2,2,2,2,2
		c0.4-0.8,0.8-1.2,0.8-1.2c-0.4,0.4-0.4,1.2-0.4,1.2c0.4,0,0.8,0.4,0.8,0.4c-0.4-0.4-0.8,0-0.8,0c0.8,0.4,0.8,1.2,0.8,1.2
		c0-0.8-0.4-0.8-0.4-0.8c0.4,0.4,0.4,0.8,0.4,0.8c0-0.8-0.8-0.8-0.8-0.8c0.4-0.4,0-0.4,0-0.4c-0.8-1.2-1.2,0-1.2,0.4h-0.4
		c0.4-1.2,0-1.2,0-1.2c-0.8-0.8-0.8,0.4-0.8,0.4c0,1.6-1.2,2.4-1.2,2.4h-0.4c0.8-0.4,1.2-1.2,1.2-1.2c0.8-1.6,0-2,0-2
		c-1.6,0-1.2,1.2-1.2,1.2c-0.4,0.4-1.2,0-1.2,0c0.4,0,0.8-0.4,0.8-0.4c0.4-0.4-0.4-1.6-0.4-1.6c0.4,0.4,2,0.4,2,0.4
		C140.4,229.6,139.6,228.8,139.6,228.8L139.6,228.8c0,0.4-0.8-0.8-0.8-0.8C139.2,227.6,139.2,228.4,139.6,228.8z"/>
	<path style="fill:#F9B54C;" d="M145.2,231.2c0,0-0.4,0.4-0.8,1.2c0,0,0,0.4-0.4,0.4c0,0.4-0.4,0.4-0.8,0.4c-0.4,0-1.2-0.4-1.6-0.4
		c0,0-0.4,0-0.8,0c-0.4,0-0.4-0.4-0.4-0.4c0-0.4,0.4-0.8,1.2-1.2c0,0,0.8,0,1.2,0c0,0-1.2-0.4-2,0.4c0,0-0.8,0.8,0,1.2
		c0,0,2,0,2.4,0c0,0,0.8,0.4,1.2,0c0,0,0-0.8,1.2-0.8c0,0-0.4-0.4-0.8,0C144.8,232.4,144.8,231.6,145.2,231.2z"/>
	<path style="fill:#F9B54C;" d="M143.2,233.2c0,0.4,0.4,1.6,0.4,1.6l-0.4-0.4l-0.4,0.4C143.2,234.4,142.8,233.2,143.2,233.2
		L143.2,233.2z"/>
	<path style="fill:#F9B54C;" d="M141.2,234.4C141.2,234,141.2,234,141.2,234.4C141.2,234,140.8,234,141.2,234.4c0-0.4,0-1.2,0-1.2
		h0.4C141.6,233.6,141.2,234.4,141.2,234.4z"/>
</g>
<rect x="136" y="218.8" style="fill:#FFFFFF;" width="7.2" height="4.8"/>
<path style="fill:#FFD05B;" d="M88.4,222c0,2-0.4,3.2-0.4,3.2c-0.4,0.4-1.6,2-1.6,2c-2.4,2-1.2,3.2-1.2,3.2v1.6
	c-0.4,0.8-0.4,2-0.4,2c1.2,2.4,2,0.4,2,0.4c1.2,1.6,2-0.4,2-0.4c1.6,0.8,2-0.8,2-0.8s2.8,0.4,2.4-6c0-1.6,0-3.2,0-4.8h-4.8V222z"/>
<g>
	<path style="fill:#F9B54C;" d="M90.8,228.8c0-0.4-0.4-1.2-0.4-1.2c0.4,1.2-1.2,2-1.2,2l0.4-0.8c-0.4,1.2-2,2-2,2
		c-0.4-0.8-0.8-1.2-0.8-1.2c0.4,0.4,0.4,1.2,0.4,1.2c-0.4,0-0.8,0.4-0.8,0.4c0.4-0.4,0.8,0,0.8,0c-0.8,0.4-0.8,1.2-0.8,1.2
		c0-0.8,0.4-0.8,0.4-0.8c-0.4,0.4-0.4,0.8-0.4,0.8c0-0.8,0.8-0.8,0.8-0.8c-0.4-0.4,0-0.4,0-0.4c0.8-1.2,1.2,0,1.2,0.4h0.4
		c-0.4-1.2,0-1.2,0-1.2c0.8-0.8,0.8,0.4,0.8,0.4c0,1.6,1.2,2.4,1.2,2.4h0.4c-0.8-0.4-1.2-1.2-1.2-1.2c-0.8-1.6,0-2,0-2
		c1.6,0,1.2,1.2,1.2,1.2c0.4,0.4,1.2,0,1.2,0c-0.4,0-0.8-0.4-0.8-0.4c-0.4-0.4,0.4-1.6,0.4-1.6c-0.4,0.4-2,0.4-2,0.4
		C90,229.6,90.8,228.8,90.8,228.8L90.8,228.8c0,0.4,0.8-0.8,0.8-0.8C91.2,227.6,90.8,228.4,90.8,228.8z"/>
	<path style="fill:#F9B54C;" d="M85.2,231.2c0,0,0.4,0.4,0.8,1.2c0,0,0,0.4,0.4,0.4c0,0.4,0.4,0.4,0.8,0.4s1.2-0.4,1.6-0.4
		c0,0,0.4,0,0.8,0s0.4-0.4,0.4-0.4c0-0.4-0.4-0.8-1.2-1.2c0,0-0.8,0-1.2,0c0,0,1.2-0.4,2,0.4c0,0,0.8,0.8,0,1.2c0,0-2,0-2.4,0
		c0,0-0.8,0.4-1.2,0c0,0,0-0.8-1.2-0.8c0,0,0.4-0.4,0.8,0C85.6,232.4,85.6,231.6,85.2,231.2z"/>
	<path style="fill:#F9B54C;" d="M87.2,233.2c0,0.4-0.4,1.6-0.4,1.6l0.4-0.4l0.4,0.4C87.2,234.4,87.2,233.2,87.2,233.2L87.2,233.2z"
		/>
	<path style="fill:#F9B54C;" d="M89.2,234.4C89.2,234,89.2,234,89.2,234.4C89.2,234,89.6,234,89.2,234.4c0-0.4,0-1.2,0-1.2h-0.4
		C88.8,233.6,89.2,234.4,89.2,234.4z"/>
</g>
<rect x="87.6" y="218.8" style="fill:#FFFFFF;" width="7.2" height="4.8"/>
<path style="fill:#2B3B4E;" d="M144.4,221.6h-10c0,0,0-25.2,1.2-30c0,0,0.4-4.8-0.8-8.8c1.6-15.2,6-28.4,6-28.8
	C140.8,154,146,166.8,144.4,221.6z"/>
<path style="fill:#324A5E;" d="M85.6,221.6h10c0,0,0-25.2-1.2-30c0,0-0.4-4.8,0.8-8.8c-1.6-15.2-6-28.4-6-28.8
	C89.2,154,84.4,166.8,85.6,221.6z"/>
<ellipse style="fill:#F9B54C;" cx="115.2" cy="142.8" rx="6.4" ry="6.8"/>
<g>
	<path style="fill:#FFFFFF;" d="M121.2,141.6c0,0,1.2,6-6.4,8.4c0,0,4.4,0.8,6,6C121.2,156,126,148,121.2,141.6z"/>
	<path style="fill:#FFFFFF;" d="M108.8,141.6c0,0-1.2,6,6.4,8.4c0,0-4.4,0.8-6,6C109.2,156,104,148,108.8,141.6z"/>
</g>
<path style="fill:#FFD05B;" d="M124,136.4c-0.8,2.8-1.2,4-1.2,4.4l0,0c-2,2.8-4.8,4.8-7.6,4.8c-2.8,0-5.2-1.6-7.2-4
	c-4.4-5.2-1.2-14.8-1.2-14.8c2,2.4,9.2,2.4,9.2,2.4c-2.8-0.4-3.6-2.8-3.6-2.8c0.4,1.6,7.2,2.4,7.2,2.4
	C126.4,129.6,124,136.4,124,136.4z"/>
<path style="fill:#324A5E;" d="M111.2,116.4c0,0,9.2-3.6,14,4.8c5.2,9.2-1.2,18.8-2.8,19.6c0,0,0.4-1.6,1.2-4.4c0,0,2.4-6.8-4.8-7.6
	c0,0-6.8-0.8-7.2-2.4c0,0,0.4,2.4,3.6,2.8c0,0-6.8,0-9.2-2.4c0,0-2.8,9.6,1.2,14.8c0,0-7.2-6-6.4-15.2
	C101.6,126.4,101.2,114,111.2,116.4z"/>
<g>
</g>
<g>
</g>
<g>
</g>
<g>
</g>
<g>
</g>
<g>
</g>
<g>
</g>
<g>
</g>
<g>
</g>
<g>
</g>
<g>
</g>
<g>
</g>
<g>
</g>
<g>
</g>
<g>
</g>
</svg>
